<?xml version="1.0" standalone="no"?>
<!DOCTYPE svg PUBLIC "-//W3C//DTD SVG 20010904//EN"
 "http://www.w3.org/TR/2001/REC-SVG-20010904/DTD/svg10.dtd">
<svg version="1.0" xmlns="http://www.w3.org/2000/svg"
 width="256.000000pt" height="256.000000pt" viewBox="0 0 256.000000 256.000000"
 preserveAspectRatio="xMidYMid meet">
<metadata>
Created by potrace 1.14, written by Peter Selinger 2001-2017
</metadata>
<g transform="translate(0.000000,256.000000) scale(0.100000,-0.100000)"
fill="#000000" stroke="none">
<path d="M1955 2193 c-44 -53 -118 -142 -163 -197 -46 -56 -92 -112 -102 -126
-18 -24 -18 -24 -211 -26 -224 -1 -212 -1 -203 -16 5 -7 3 -8 -6 -3 -9 6 -11
4 -5 -4 5 -9 10 -10 18 -2 6 6 18 11 27 11 13 0 13 -1 0 -10 -8 -5 -15 -13
-15 -18 0 -16 -50 -62 -67 -62 -10 0 -18 -4 -18 -10 0 -5 -10 -9 -22 -9 -13 1
-32 -1 -43 -4 -22 -5 -85 21 -110 47 -15 15 -12 20 8 17 5 -1 6 3 2 9 -3 6
-11 7 -17 4 -8 -5 -9 -1 -5 10 4 10 7 20 7 22 0 2 11 4 23 4 67 0 106 136 58
200 -22 31 -44 36 -64 16 -13 -14 -16 -14 -21 -1 -3 8 -15 15 -27 15 -17 0
-19 -3 -10 -14 8 -9 11 -47 9 -107 -3 -88 -4 -92 -26 -94 -25 -2 -38 10 -22
20 5 3 10 11 10 17 0 6 -8 4 -18 -5 -10 -10 -26 -17 -35 -17 -19 0 -47 48 -47
80 0 17 6 20 51 20 l52 0 -7 32 c-3 17 -14 40 -23 50 -59 65 -131 -75 -85
-164 18 -34 18 -36 1 -33 -16 3 -17 -3 -13 -62 5 -53 3 -64 -8 -57 -7 4 -5 -2
4 -13 25 -28 22 -40 -9 -38 -16 1 -38 -2 -50 -6 -14 -5 -25 -3 -33 7 -8 9 -9
14 -2 14 6 0 13 -6 15 -12 4 -10 6 -10 6 0 1 8 6 10 14 6 6 -4 9 -4 5 0 -4 5
-3 19 2 32 5 13 7 24 5 24 -3 0 -10 -11 -15 -25 -6 -16 -15 -23 -24 -19 -13 5
-13 10 -5 27 l11 22 -19 -20 c-18 -19 -28 -60 -12 -50 4 3 10 -2 13 -11 5 -12
2 -15 -13 -11 -10 2 -25 0 -32 -5 -11 -8 -10 -9 3 -4 11 3 15 1 12 -8 -3 -8
-14 -12 -25 -9 -11 3 -19 0 -19 -6 0 -7 5 -9 12 -5 7 5 9 2 5 -9 -5 -13 0 -15
29 -13 19 2 37 6 40 8 7 8 97 -11 108 -22 11 -11 -10 -13 -101 -10 -29 1 -53
-2 -53 -7 0 -4 40 -8 89 -8 52 0 87 4 84 9 -4 5 0 6 8 0 8 -5 132 -9 277 -9
l263 0 77 85 c42 47 100 110 129 140 l51 55 167 0 c92 0 169 -3 171 -7 3 -4
18 -5 35 -1 30 6 74 -20 64 -38 -3 -4 -1 -11 5 -14 8 -5 7 -11 -1 -21 -9 -11
-8 -15 4 -20 9 -3 18 -12 21 -20 4 -9 2 -12 -5 -8 -8 4 -9 -1 -4 -17 7 -23 7
-23 -8 -4 -10 13 -12 22 -5 26 7 4 7 9 0 13 -23 14 -20 -27 4 -52 15 -15 24
-22 21 -17 -3 6 -1 17 4 25 7 11 8 7 5 -12 -3 -16 0 -28 5 -28 5 0 9 -16 9
-35 0 -24 -5 -35 -15 -35 -8 0 -14 6 -13 13 2 6 -2 11 -9 10 -7 -2 -10 4 -7
12 4 9 0 15 -8 15 -7 0 -14 -9 -14 -21 0 -14 5 -19 17 -16 12 3 16 0 12 -9 -4
-10 -10 -11 -23 -4 -13 7 -20 6 -23 -3 -3 -6 -4 6 -3 27 1 31 6 40 21 42 11 2
26 -4 33 -13 6 -9 12 -12 12 -6 0 18 -25 32 -53 29 -18 -2 -27 1 -27 11 0 9 5
11 13 7 6 -4 4 2 -6 14 -20 22 -14 47 8 38 7 -2 16 2 19 9 4 11 0 12 -19 5
-15 -6 -27 -6 -30 0 -4 6 -3 10 2 10 4 0 3 4 -2 8 -6 4 -18 22 -26 40 l-16 32
-24 -27 c-13 -16 -62 -74 -107 -129 -73 -90 -86 -101 -112 -99 -22 2 -28 -2
-27 -16 1 -12 5 -15 11 -9 17 17 27 11 17 -9 -6 -10 -24 -21 -40 -24 -17 -4
-38 -15 -48 -26 -64 -69 -66 -71 -47 -64 18 7 18 6 0 -21 -10 -16 -13 -25 -7
-22 22 14 10 -6 -25 -42 -37 -37 -37 -37 -32 -10 3 15 2 25 -2 23 -4 -3 -10 4
-13 15 -3 11 -1 18 3 15 5 -3 12 -1 15 5 4 6 1 9 -7 8 -16 -4 -20 91 -5 134 8
25 13 27 60 28 83 2 107 4 107 10 0 4 -251 6 -286 1 -6 0 -62 -63 -124 -138
-318 -384 -365 -438 -379 -444 -9 -3 -224 -5 -478 -5 l-463 1 0 -146 0 -145
345 0 c189 0 347 -3 352 -7 4 -5 3 -11 -3 -15 -5 -4 -48 -53 -94 -110 -71 -87
-81 -105 -69 -116 61 -55 199 -166 208 -166 13 0 42 41 35 52 -10 15 72 125
135 183 51 46 22 1 -42 -67 -31 -32 -53 -58 -51 -58 3 0 -4 -10 -16 -22 -19
-20 -26 -38 -15 -38 2 0 30 33 62 73 32 39 60 74 63 77 3 3 41 48 84 100 43
52 84 100 91 105 8 6 249 10 682 9 l670 -1 -2 28 c-1 16 2 26 7 23 5 -3 8 -15
6 -27 -3 -20 2 -22 55 -23 l58 -1 -3 146 -3 146 -100 0 c-99 -1 -100 -1 -97
-24 2 -18 -2 -22 -14 -17 -13 5 -14 3 -6 -7 6 -7 11 -35 11 -62 0 -28 4 -63 9
-80 4 -16 7 -36 6 -42 -1 -7 -2 -17 -3 -23 0 -5 -6 -10 -12 -10 -5 0 -7 5 -3
12 4 7 3 8 -5 4 -6 -4 -9 -12 -6 -17 9 -13 -19 -11 -33 3 -17 17 -15 38 5 60
21 23 3 24 -42 2 -20 -9 -38 -27 -43 -44 -9 -25 -16 -28 -62 -31 -49 -4 -51
-3 -47 18 2 13 0 23 -4 23 -5 0 -9 5 -9 11 0 7 -8 18 -17 26 -10 8 -12 12 -6
8 9 -4 11 -1 6 10 -4 12 -8 13 -13 4 -5 -6 -15 -9 -24 -6 -18 7 -22 -13 -6
-29 13 -13 1 -52 -19 -59 -31 -9 -81 -12 -81 -4 0 8 -33 4 -51 -6 -6 -4 -17 1
-25 11 -9 11 -13 13 -9 7 3 -7 2 -13 -3 -13 -12 0 -37 30 -26 30 5 0 2 5 -6
10 -20 13 -2 42 33 54 35 13 71 -17 62 -51 -4 -17 -2 -21 10 -17 8 4 15 10 15
15 0 4 8 6 18 3 10 -4 13 -3 6 3 -14 10 -13 74 0 65 5 -3 -2 10 -17 29 -21 28
-24 38 -14 49 10 10 8 11 -7 2 -15 -7 -26 -6 -43 5 -38 25 -112 11 -175 -32
-50 -35 -77 -56 -51 -42 7 5 9 0 6 -13 -5 -21 -33 -28 -33 -9 0 5 4 7 10 4 6
-4 7 1 3 11 -5 14 -8 13 -19 -7 -12 -21 -19 -19 -15 4 1 5 -3 6 -9 2 -8 -5 -7
-11 1 -21 9 -11 9 -17 -1 -29 -9 -11 -9 -15 -1 -15 7 0 11 -7 9 -16 -2 -9 4
-18 13 -19 9 -2 16 3 16 11 0 7 -5 10 -10 7 -5 -3 -8 0 -5 7 9 27 23 19 25
-13 1 -27 -2 -33 -16 -32 -10 1 -25 8 -33 16 -17 17 -21 59 -6 59 7 0 7 4 1
13 -9 11 -14 40 -17 97 0 14 -3 27 -6 30 -11 11 -30 61 -20 55 20 -12 50 -14
50 -3 0 7 7 3 15 -8 10 -13 14 -14 13 -4 -4 18 48 15 71 -3 12 -10 13 -9 7 1
-6 10 -1 13 20 10 16 -2 29 -8 29 -15 0 -6 3 -15 7 -19 4 -3 6 3 3 15 -4 20 6
27 30 21 13 -3 60 -2 102 3 25 2 34 -1 39 -15 3 -10 10 -16 15 -13 5 3 6 -1 3
-9 -3 -9 -2 -16 4 -16 14 0 9 30 -7 39 -10 6 -9 10 4 14 10 4 18 0 22 -11 4
-9 11 -20 17 -24 6 -4 5 -13 -5 -25 -13 -16 -12 -17 3 -5 14 11 21 11 42 -3
14 -10 47 -18 73 -19 42 -2 52 1 78 29 17 17 35 39 40 49 13 23 43 11 57 -23
l10 -26 10 28 c6 17 15 26 23 23 7 -2 15 1 18 8 4 9 -105 12 -498 11 l-504 0
-78 -84 c-43 -46 -101 -109 -130 -140 l-51 -56 -171 0 c-94 0 -171 1 -171 3 0
2 49 63 109 136 l109 132 181 -1 182 -1 82 101 c45 55 91 111 103 125 12 14
61 72 108 130 48 58 95 114 104 125 9 11 34 41 54 67 28 35 43 45 58 41 11 -3
20 0 20 6 0 6 -7 11 -16 11 -14 0 -14 2 1 16 15 16 18 16 33 0 10 -10 12 -16
4 -16 -7 0 -12 -4 -12 -8 0 -4 133 -8 295 -7 162 0 295 3 295 7 0 4 -28 7 -62
7 -94 -1 -91 -2 -72 26 11 17 18 53 20 103 2 42 5 86 5 97 4 52 8 50 -141 50
-77 0 -140 3 -140 8 0 5 18 29 40 55 104 125 160 195 160 202 0 5 -21 26 -47
47 -27 21 -73 59 -104 85 -30 27 -60 48 -65 48 -5 0 -45 -44 -89 -97z m95 2
c0 -9 -4 -13 -10 -10 -5 3 -10 1 -10 -5 0 -6 8 -9 18 -6 13 4 18 0 19 -15 1
-15 -1 -19 -8 -12 -6 6 -27 8 -46 6 -26 -4 -33 -2 -28 7 6 9 3 9 -13 1 -29
-16 -34 -14 -20 8 7 11 16 17 20 15 4 -3 8 1 8 8 0 9 13 15 35 16 26 2 35 -1
35 -13z m60 -17 c0 -5 -6 -6 -12 -2 -10 6 -10 4 0 -8 10 -13 10 -17 -3 -22 -9
-3 -13 -2 -10 4 3 6 1 10 -6 10 -7 0 -9 3 -6 7 4 3 2 12 -3 18 -8 9 -4 11 15
7 14 -2 25 -9 25 -14z m115 -58 c13 -14 13 -19 -1 -38 -15 -22 -41 -21 -28 0
4 6 2 8 -3 5 -6 -4 -22 4 -37 18 -15 13 -29 25 -31 25 -3 0 -10 0 -16 0 -8 0
-8 5 1 15 7 8 9 15 4 15 -5 0 -2 4 6 10 15 9 78 -20 105 -50z m-1307 -82 c7
-7 12 -25 12 -40 0 -25 -3 -28 -35 -28 -34 0 -35 1 -29 28 12 48 30 62 52 40z
m176 -30 c13 -30 13 -77 1 -125 -7 -29 -45 -41 -60 -19 -15 20 -11 142 6 162
19 23 39 16 53 -18z m841 -73 c43 -5 68 -22 58 -39 -4 -6 2 -4 12 4 17 14 18
13 12 -3 -4 -11 -3 -16 3 -12 18 11 30 -5 18 -24 -13 -21 -50 -17 -88 9 -30
20 -120 26 -150 10 -25 -13 -41 -5 -33 16 3 9 13 14 24 11 11 -3 17 -1 14 3
-3 5 0 12 6 16 16 9 72 22 80 17 4 -1 24 -5 44 -8z m-185 -75 c-8 -5 -19 -10
-25 -10 -5 0 -3 5 5 10 8 5 20 10 25 10 6 0 3 -5 -5 -10z m-150 -32 c0 -7 -10
-24 -21 -38 -22 -26 -22 -22 1 23 15 30 20 34 20 15z m-195 -141 c-8 -13 -12
-27 -8 -30 3 -4 1 -7 -6 -7 -7 0 -10 -4 -6 -9 3 -5 1 -12 -4 -15 -5 -3 -7 -15
-4 -25 3 -13 -2 -23 -17 -31 -20 -11 -21 -10 -15 12 9 28 44 98 57 116 17 21
19 13 3 -11z m-49 -299 c-1 -29 2 -55 6 -58 3 -3 8 -19 11 -35 2 -17 9 -43 15
-58 7 -16 9 -34 5 -40 -3 -7 -3 -9 2 -5 4 4 16 -9 26 -29 l19 -37 -25 -26 -25
-27 -46 44 c-25 23 -51 40 -57 36 -6 -4 -7 -1 -3 6 5 8 3 11 -5 10 -8 -1 -27
3 -42 9 -15 7 -41 13 -57 14 -17 1 -30 3 -30 4 0 0 9 11 19 23 20 23 50 22 96
-3 11 -5 22 -11 25 -11 11 -2 70 -36 70 -41 0 -3 -5 -2 -12 2 -7 4 -8 3 -4 -4
4 -7 2 -12 -4 -12 -6 0 -8 -5 -4 -12 6 -9 9 -9 12 0 2 7 9 9 14 6 7 -5 8 -2 3
6 -6 10 -4 12 8 7 9 -3 19 -1 23 5 4 7 3 8 -4 4 -6 -4 -18 6 -26 23 -12 23
-13 31 -3 34 7 4 6 6 -4 6 -9 1 -19 10 -22 21 -3 13 -1 18 5 13 7 -3 8 -1 4 6
-4 6 -2 20 5 29 12 15 11 15 -7 -1 -20 -17 -21 -17 -19 13 1 16 -2 30 -7 30
-17 0 -7 29 13 35 19 7 20 7 2 21 -17 12 -17 13 0 14 9 0 16 3 16 8 -2 10 0
22 4 22 2 0 3 -24 3 -52z m-236 -352 c28 3 133 -43 125 -55 -2 -5 -17 -6 -32
-4 -16 2 -37 4 -48 5 -11 0 -14 2 -7 5 18 7 14 19 -7 19 -11 0 -17 -5 -14 -13
3 -7 -2 -13 -11 -13 -9 0 -19 6 -22 14 -3 8 -12 12 -21 9 -12 -5 -12 -7 -1
-14 8 -5 2 -7 -17 -5 -17 1 -40 -1 -52 -5 -14 -5 -23 -3 -27 6 -3 9 0 12 10 8
8 -3 14 -2 13 3 -4 22 2 36 14 31 7 -3 21 1 32 9 10 8 23 10 29 5 6 -4 22 -7
36 -5z m-940 -80 c0 -5 8 -2 17 5 15 12 16 12 8 -1 -8 -13 -7 -13 8 -1 13 10
17 10 17 1 0 -10 3 -10 15 0 10 8 15 9 15 2 0 -6 -8 -16 -17 -21 -10 -6 -12
-11 -5 -11 6 0 12 -5 12 -11 0 -5 -4 -7 -10 -4 -5 3 -10 1 -10 -5 0 -7 8 -9
22 -4 21 6 22 5 8 -11 -13 -17 -13 -18 0 -10 8 6 18 10 22 10 3 0 10 4 15 8 4
5 2 7 -6 5 -7 -2 -16 3 -18 10 -3 8 2 10 14 6 14 -5 15 -4 4 4 -8 6 -21 7 -30
4 -14 -5 -14 -4 -2 11 11 14 16 15 29 5 13 -10 14 -10 8 0 -4 6 -2 12 3 12 6
0 11 -7 11 -15 0 -8 5 -15 10 -15 6 0 10 -7 10 -15 0 -8 3 -14 8 -13 4 1 18
-4 31 -11 60 -33 149 -8 178 50 17 33 45 30 62 -6 13 -26 16 -27 19 -10 6 31
23 47 37 35 6 -5 15 -7 18 -3 4 3 7 1 7 -5 0 -7 -4 -12 -9 -12 -4 0 -7 -13 -5
-29 2 -16 5 -58 6 -94 2 -36 6 -63 11 -60 10 6 9 -2 -5 -32 -6 -14 -16 -25
-21 -25 -5 0 -3 8 4 18 13 16 12 16 -6 1 -40 -33 -64 13 -27 54 17 19 16 20
-12 13 -39 -10 -74 -37 -78 -61 -2 -16 -12 -21 -54 -23 -51 -3 -51 -3 -59 30
-4 18 -7 36 -6 41 1 4 -12 10 -29 13 -16 4 -30 11 -30 17 0 15 -13 -1 -16 -18
-1 -8 1 -13 6 -10 10 6 20 -33 13 -52 -3 -8 -12 -12 -20 -9 -8 3 -11 1 -8 -4
3 -6 3 -10 -2 -11 -57 -4 -116 -2 -120 4 -3 4 -11 3 -18 -3 -17 -14 -69 35
-61 57 3 8 6 19 6 25 0 6 9 8 20 5 11 -3 17 -1 14 4 -3 5 5 8 17 6 26 -4 50
-33 42 -53 -6 -16 5 -18 27 -4 17 10 23 92 7 102 -7 4 -6 12 4 25 12 16 12 17
-2 6 -12 -10 -20 -8 -42 13 -16 15 -24 30 -20 37 4 7 0 7 -10 -2 -9 -7 -36
-14 -60 -16 -46 -3 -117 -31 -117 -46 0 -5 -4 -9 -10 -9 -14 0 -12 43 3 59 7
8 7 11 1 8 -7 -4 -12 3 -11 18 0 25 16 29 46 11 9 -6 12 -5 7 2 -7 12 17 17
76 17 21 0 38 -4 38 -9z m1330 -1 c9 -6 9 -10 -1 -16 -10 -6 -11 -9 -1 -9 6 0
12 -7 12 -16 0 -8 -5 -12 -11 -8 -6 3 -4 -4 4 -17 13 -21 14 -29 2 -61 -7 -21
-9 -38 -5 -38 5 0 0 -21 -10 -47 -14 -39 -22 -47 -44 -49 -14 0 -26 0 -26 1 0
2 8 22 19 44 18 41 19 61 7 182 -5 44 -4 46 19 44 13 -2 29 -6 35 -10z m-206
-77 c15 -59 -7 -176 -33 -170 -7 1 -21 -2 -31 -8 -16 -8 -24 -6 -42 12 -15 15
-20 16 -15 5 3 -9 2 -19 -3 -22 -16 -10 -16 18 0 51 8 18 21 33 28 34 6 0 15
0 19 1 4 0 9 -4 11 -9 2 -6 -5 -9 -15 -8 -10 0 -17 -5 -15 -12 1 -8 -2 -11 -8
-7 -5 3 -10 1 -10 -4 0 -6 5 -11 11 -11 5 0 7 -5 3 -12 -4 -7 -3 -8 5 -4 6 4
9 11 6 16 -6 9 23 22 35 15 4 -3 12 1 18 8 7 8 5 19 -9 36 -16 19 -22 21 -34
11 -17 -14 -31 -8 -20 9 3 6 11 9 16 6 5 -4 9 1 9 9 0 8 4 18 10 21 5 3 8 0 7
-7 -2 -7 -2 -10 0 -5 3 4 8 5 13 2 4 -3 6 4 3 14 -5 18 13 50 28 51 4 0 9 -10
13 -22z m-41 -121 c-4 -7 -8 -6 -11 3 -3 8 -10 22 -16 30 -6 8 -1 7 11 -4 13
-10 20 -23 16 -29z m370 8 c-21 -16 -26 -14 -17 8 3 9 12 13 20 10 12 -4 11
-8 -3 -18z m-820 -125 c15 -12 27 -19 27 -16 0 2 15 0 33 -5 17 -6 37 -11 42
-12 6 -2 16 -7 24 -11 9 -6 12 -5 8 1 -4 7 8 12 32 15 l39 3 -27 -31 c-23 -28
-71 -48 -131 -57 -8 -1 -20 -8 -26 -16 -6 -8 -16 -11 -23 -7 -7 5 -10 2 -9 -6
2 -7 -2 -12 -8 -11 -6 1 -28 -16 -49 -38 -43 -43 -50 -46 -59 -23 -4 10 -2 13
7 9 6 -4 5 -1 -3 7 -15 13 -59 70 -75 97 -5 9 -4 12 2 8 6 -4 14 4 17 18 4 14
11 23 16 20 6 -3 10 -1 10 6 0 7 3 9 6 6 12 -11 58 23 83 61 19 29 25 33 30
20 3 -9 18 -26 34 -38z m-242 -207 l24 -27 -24 15 c-14 9 -27 21 -29 27 -6 19
3 14 29 -15z"/>
<path d="M2137 2161 c2 -2 -2 -10 -7 -17 -8 -9 -6 -12 7 -10 10 0 17 -5 16
-11 -2 -7 1 -13 6 -13 6 0 9 9 8 20 -1 10 -3 17 -6 15 -2 -3 -9 1 -15 8 -6 7
-10 10 -9 8z"/>
<path d="M1341 1362 c-1 -8 -6 -10 -13 -6 -10 5 -10 4 -1 -6 15 -16 28 -8 20
12 -4 11 -6 11 -6 0z"/>
<path d="M1213 1210 c6 -11 15 -20 19 -20 12 0 -3 28 -18 34 -11 4 -12 2 -1
-14z"/>
<path d="M1254 1199 c-5 -8 -3 -9 6 -4 10 6 12 4 7 -9 -4 -10 -3 -15 4 -11 5
4 21 -1 34 -9 14 -9 25 -12 25 -7 0 5 -9 13 -20 16 -12 4 -17 11 -14 18 4 7 4
9 -1 5 -4 -4 -14 -3 -21 3 -8 7 -14 6 -20 -2z"/>
<path d="M1365 1110 c22 -24 20 -25 22 2 2 18 0 20 -7 8 -7 -10 -10 -11 -10
-2 0 6 -5 12 -12 12 -6 0 -3 -9 7 -20z"/>
<path d="M1057 1029 c-10 -6 -14 -15 -10 -22 4 -8 1 -7 -9 1 -10 8 -19 9 -22
3 -8 -12 2 -18 29 -17 11 1 20 6 20 13 0 6 4 15 9 20 5 5 6 3 2 -4 -4 -7 -2
-13 3 -13 13 0 15 17 3 24 -4 2 -15 0 -25 -5z"/>
<path d="M1108 1008 c5 -20 23 -25 20 -5 -2 6 3 11 10 10 6 -2 12 1 12 6 0 5
-11 8 -23 7 -17 -1 -23 -6 -19 -18z"/>
<path d="M30 937 c0 -2 6 -10 14 -16 11 -9 16 -9 22 1 4 7 4 10 -1 6 -4 -4
-14 -3 -22 3 -7 6 -13 9 -13 6z"/>
<path d="M453 807 c0 -7 9 -14 20 -14 11 -1 18 -1 16 0 -2 2 -11 8 -20 15 -12
9 -16 9 -16 -1z"/>
<path d="M310 806 c0 -2 7 -7 16 -10 8 -3 12 -2 9 4 -6 10 -25 14 -25 6z"/>
<path d="M450 776 c0 -2 8 -10 18 -17 15 -13 16 -12 3 4 -13 16 -21 21 -21 13z"/>
<path d="M188 759 c6 -9 9 -18 6 -22 -3 -3 1 -4 10 -3 9 1 21 8 26 14 7 9 7 9
-2 2 -8 -7 -18 -4 -32 8 -16 13 -18 13 -8 1z"/>
<path d="M503 759 c9 -6 15 -14 12 -19 -3 -5 -1 -11 4 -14 5 -4 8 0 7 6 -3 21
-16 38 -29 38 -7 0 -4 -5 6 -11z"/>
<path d="M150 746 c0 -2 7 -7 16 -10 8 -3 12 -2 9 4 -6 10 -25 14 -25 6z"/>
<path d="M315 729 c-4 -6 -5 -12 -2 -15 2 -3 7 2 10 11 7 17 1 20 -8 4z"/>
<path d="M1469 917 c6 -8 7 -18 3 -22 -4 -5 -1 -5 6 -1 10 6 10 11 1 22 -6 8
-14 14 -16 14 -3 0 0 -6 6 -13z"/>
<path d="M1480 760 c-9 -6 -10 -10 -3 -10 6 0 15 5 18 10 8 12 4 12 -15 0z"/>
<path d="M1266 807 c3 -10 9 -15 12 -12 3 3 0 11 -7 18 -10 9 -11 8 -5 -6z"/>
<path d="M1226 714 c-5 -14 -4 -15 9 -4 17 14 19 20 6 20 -5 0 -12 -7 -15 -16z"/>
<path d="M835 611 c-3 -6 -3 -10 2 -9 4 2 8 -1 8 -7 0 -5 -4 -9 -8 -7 -5 1 -5
-2 -2 -8 5 -8 13 -6 24 4 10 9 22 16 27 16 5 0 2 -4 -6 -10 -8 -5 -11 -13 -6
-17 5 -4 11 -2 13 5 7 19 23 4 17 -16 -5 -14 -4 -15 5 -2 12 17 -15 54 -35 46
-6 -2 -16 0 -22 6 -6 6 -12 6 -17 -1z"/>
<path d="M723 598 c-4 -7 -8 -20 -8 -28 0 -8 -4 -22 -10 -30 -7 -13 -6 -13 7
-2 9 7 15 21 13 30 -1 9 2 23 8 30 5 6 7 12 4 12 -3 0 -9 -6 -14 -12z"/>
<path d="M680 575 c-7 -8 -17 -12 -24 -8 -6 3 -7 2 -3 -2 4 -5 15 -10 23 -11
9 -1 13 0 10 3 -3 4 -1 12 5 20 6 7 9 13 6 13 -2 0 -10 -7 -17 -15z"/>
<path d="M636 542 c-2 -4 2 -16 10 -27 8 -10 14 -14 14 -8 0 7 -5 15 -10 18
-6 4 -8 11 -5 16 4 5 4 9 1 9 -3 0 -7 -3 -10 -8z"/>
<path d="M775 519 c-4 -6 -5 -12 -2 -15 2 -3 7 2 10 11 7 17 1 20 -8 4z"/>
<path d="M754 498 c3 -10 -2 -22 -12 -27 -9 -6 -12 -11 -6 -11 20 0 34 24 22
40 -8 12 -9 12 -4 -2z"/>
<path d="M696 487 c3 -10 9 -15 12 -12 3 3 0 11 -7 18 -10 9 -11 8 -5 -6z"/>
<path d="M660 486 c0 -2 7 -9 15 -16 13 -11 14 -10 9 4 -5 14 -24 23 -24 12z"/>
<path d="M710 439 c0 -5 5 -7 10 -4 6 3 10 8 10 11 0 2 -4 4 -10 4 -5 0 -10
-5 -10 -11z"/>
<path d="M518 2185 c-3 -4 -3 -15 -1 -26 7 -24 28 -20 28 6 0 18 -16 30 -27
20z"/>
<path d="M758 2185 c-3 -4 -3 -15 -1 -26 7 -24 28 -20 28 6 0 18 -16 30 -27
20z"/>
<path d="M275 2166 c18 -13 20 -28 20 -155 0 -100 -4 -144 -13 -153 -9 -9 -52
-12 -145 -13 l-132 0 -3 -143 c-1 -78 1 -142 5 -143 53 -7 163 -3 160 5 -2 6
-11 10 -21 8 -9 -2 -16 3 -16 10 0 9 -3 9 -10 -2 -9 -13 -10 -13 -10 0 0 10
-3 11 -8 3 -8 -12 -24 -16 -63 -14 -25 1 -27 4 -26 41 1 46 21 57 81 46 39 -7
89 -43 80 -57 -3 -5 0 -8 7 -7 7 2 17 -6 23 -17 11 -19 21 -20 249 -20 130 0
237 3 237 7 0 5 -13 8 -30 8 -22 0 -28 4 -24 15 4 8 11 12 16 9 6 -4 8 1 4 14
-4 11 -3 23 2 26 4 2 9 47 9 98 1 77 4 94 17 96 9 2 16 9 15 15 -1 7 1 20 6
30 4 10 5 21 1 24 -3 4 -6 -1 -6 -10 0 -25 -41 -33 -54 -11 -27 46 -33 108
-14 149 15 34 37 32 51 -5 14 -36 27 -39 27 -5 0 24 -25 45 -54 45 -26 0 -55
-41 -62 -86 -7 -46 10 -114 28 -114 17 0 2 -11 -19 -14 -10 -2 -26 1 -35 6
-15 7 -18 24 -18 108 0 98 -3 106 -34 94 -12 -5 -13 -8 -3 -18 8 -8 12 -43 12
-97 l0 -84 -30 0 c-33 0 -50 25 -60 87 -3 21 -13 44 -21 53 -15 14 -14 18 10
40 33 30 35 81 5 119 -19 24 -26 26 -97 26 -68 0 -74 -2 -57 -14z m130 -29
c17 -41 9 -84 -21 -103 -43 -29 -59 -16 -59 51 -1 69 7 85 42 85 18 0 28 -8
38 -33z m-21 -149 c8 -13 17 -48 21 -78 4 -30 9 -58 10 -61 6 -10 -66 -2 -76
8 -8 8 -14 83 -10 136 2 25 38 21 55 -5z m3 -157 c25 -1 36 -8 53 -36 12 -19
19 -39 15 -45 -3 -5 -1 -10 6 -10 8 0 7 -5 -2 -17 -12 -15 -12 -16 4 -10 12 4
16 3 11 -4 -4 -6 0 -16 7 -21 11 -8 10 -9 -4 -4 -10 3 -16 2 -13 -3 3 -5 -1
-14 -9 -21 -8 -7 -12 -16 -9 -21 3 -5 -3 -9 -13 -9 -15 0 -15 -3 6 -19 17 -13
19 -18 7 -18 -9 0 -16 4 -16 9 0 5 -4 7 -8 4 -4 -2 -8 5 -9 17 -1 12 -4 32 -7
45 -3 16 -1 22 7 19 7 -2 10 -13 9 -23 -3 -16 -1 -16 17 5 22 25 29 43 10 24
-18 -18 -55 8 -69 47 -7 19 -24 49 -37 67 -21 27 -22 31 -6 28 10 -2 32 -4 50
-4z m87 -177 c-10 -8 -13 -12 -5 -8 17 8 31 -13 31 -48 0 -26 -3 -28 -45 -28
-25 0 -45 5 -45 10 0 6 13 8 30 5 17 -3 30 -2 31 2 0 5 2 16 4 26 2 9 -1 15
-6 11 -5 -3 -6 -10 -3 -16 4 -7 2 -8 -4 -4 -20 12 -3 66 21 66 6 0 2 -7 -9
-16z"/>
<path d="M378 1808 c-7 -4 -8 -8 -3 -8 6 0 11 -8 12 -18 3 -34 8 -47 27 -64
25 -23 31 -23 33 2 1 11 -2 20 -8 20 -5 0 -9 -5 -9 -11 0 -5 -4 -7 -10 -4 -12
7 -14 26 -2 24 34 -6 40 7 17 37 -15 19 -15 19 -8 -1 6 -18 5 -18 -10 -6 -12
9 -14 17 -7 26 11 14 -12 17 -32 3z m55 -43 c4 3 5 2 2 -2 -12 -15 -33 -10
-38 9 -5 18 -4 19 12 4 10 -9 21 -14 24 -11z"/>
<path d="M751 2051 c-11 -7 -11 -9 0 -13 9 -3 13 -30 14 -92 1 -80 -1 -89 -20
-96 -11 -4 -23 -6 -27 -3 -5 2 -8 -1 -8 -8 0 -7 10 -9 25 -7 13 3 26 0 29 -6
3 -8 5 -8 5 0 1 6 12 9 26 6 27 -5 35 12 10 22 -12 4 -15 26 -15 106 0 102 -5
113 -39 91z"/>
<path d="M1198 2043 c-40 -46 -47 -127 -16 -175 l16 -24 -51 0 c-44 1 -52 -2
-55 -19 -2 -12 0 -16 5 -9 4 6 25 11 46 11 37 1 38 0 20 -17 -15 -14 -19 -15
-26 -4 -11 19 -20 17 -35 -7 -8 -12 -9 -18 -3 -14 15 9 14 -8 -1 -25 -7 -8 -1
-4 15 9 30 27 37 19 10 -12 -11 -13 -12 -17 -4 -12 11 6 13 4 8 -8 -4 -12 -1
-15 15 -12 11 3 23 7 27 11 3 4 -2 5 -11 1 -18 -6 -34 18 -18 28 6 4 10 1 10
-5 0 -7 8 -9 20 -5 16 5 19 3 14 -12 -4 -13 -3 -15 4 -5 5 8 12 13 16 13 20
-3 26 0 21 9 -3 6 2 10 12 10 10 0 27 8 38 17 20 16 16 16 -30 -3 -11 -5 -13
-2 -9 10 3 9 11 13 17 9 5 -3 7 -1 3 5 -3 6 4 28 16 49 22 38 22 38 1 20 -38
-33 -83 1 -83 64 0 16 7 19 50 19 58 0 63 13 30 68 -22 36 -49 41 -72 15z m52
-7 c6 -8 10 -25 8 -38 -2 -18 -10 -24 -36 -26 -30 -3 -32 -2 -28 23 5 28 23
55 36 55 4 0 13 -7 20 -14z m-10 -213 c0 -1 -8 -18 -17 -37 -12 -27 -20 -33
-29 -25 -7 6 -18 8 -23 5 -17 -11 -24 15 -8 31 11 12 19 13 36 4 14 -8 21 -8
21 -1 0 5 -7 10 -15 10 -8 0 -15 4 -15 10 0 5 11 9 25 8 14 -1 25 -3 25 -5z
m-110 -23 c0 -5 -5 -10 -11 -10 -5 0 -7 5 -4 10 3 6 8 10 11 10 2 0 4 -4 4
-10z"/>
<path d="M1170 1797 c0 -2 6 -10 14 -16 11 -9 16 -9 22 1 4 7 4 10 -1 6 -4 -4
-14 -3 -22 3 -7 6 -13 9 -13 6z"/>
<path d="M2350 1839 c0 -5 5 -11 10 -14 6 -3 10 -2 10 2 0 12 53 10 62 -2 5
-7 8 -7 8 0 0 6 14 10 32 9 27 -1 32 -5 33 -28 0 -15 -3 -30 -7 -32 -4 -3 -8
-11 -8 -17 0 -7 4 -6 10 3 8 12 10 11 10 -6 0 -31 -11 -36 -34 -17 -21 18 -21
18 -2 -4 10 -13 22 -20 27 -18 9 6 23 -34 15 -42 -3 -4 -6 -1 -6 7 0 10 -3 10
-15 0 -13 -11 -14 -10 -9 5 5 12 4 16 -3 12 -6 -4 -14 -1 -17 5 -3 7 -3 3 0
-9 3 -13 1 -23 -5 -23 -11 0 -14 10 -12 45 0 15 -1 16 -7 5 -4 -8 -18 -16 -31
-18 -19 -2 -21 0 -12 12 9 10 7 17 -6 27 -16 13 -17 12 -5 -3 10 -12 10 -18 1
-23 -6 -4 -15 -2 -19 5 -5 8 -10 9 -14 2 -3 -6 3 -13 13 -17 11 -3 18 -12 15
-20 -3 -7 -1 -16 5 -20 7 -3 8 0 5 9 -3 9 -1 16 5 16 6 0 11 -5 11 -11 0 -5 5
-7 11 -3 8 4 7 9 -2 15 -10 6 -10 9 -2 9 17 0 29 -23 14 -28 -6 -2 -25 -15
-40 -28 -32 -26 -51 -33 -28 -9 18 18 12 51 -11 60 -14 5 -14 4 -5 -6 9 -9 10
-16 1 -26 -9 -11 -7 -12 8 -7 18 7 18 6 3 -12 -9 -10 -14 -25 -11 -33 3 -8 0
-11 -7 -7 -6 4 -11 0 -11 -9 0 -9 4 -14 8 -11 32 20 108 21 167 3 l40 -12 -42
-3 c-59 -4 -54 -17 7 -17 l51 -1 -3 145 -3 146 -102 0 c-57 1 -103 -2 -103 -6z"/>
<path d="M690 1805 c0 -8 4 -15 8 -15 5 0 9 7 9 15 0 8 -4 15 -9 15 -4 0 -8
-7 -8 -15z"/>
<path d="M2061 1803 c12 -15 12 -16 -6 -9 -15 5 -17 4 -9 -4 9 -9 17 -9 32 -1
10 6 23 7 28 3 5 -4 2 1 -5 11 -14 18 -26 24 -16 7 3 -5 1 -10 -4 -10 -6 0
-11 5 -11 10 0 6 -5 10 -11 10 -8 0 -7 -6 2 -17z"/>
<path d="M773 1795 c0 -8 4 -12 9 -9 5 3 6 10 3 15 -9 13 -12 11 -12 -6z"/>
<path d="M2400 1796 c0 -2 7 -7 16 -10 8 -3 12 -2 9 4 -6 10 -25 14 -25 6z"/>
<path d="M2469 1783 c-13 -16 -12 -17 4 -4 9 7 17 15 17 17 0 8 -8 3 -21 -13z"/>
<path d="M815 1778 c4 -11 -7 -14 -50 -13 -30 1 -55 -2 -55 -6 0 -4 21 -6 48
-4 26 1 52 -1 57 -6 7 -5 11 -1 12 11 1 11 -2 22 -8 25 -5 3 -6 0 -4 -7z"/>
<path d="M2083 1773 c-13 -5 -19 -33 -7 -33 15 0 44 22 39 31 -7 10 -13 10
-32 2z m27 -7 c0 -2 -7 -7 -16 -10 -8 -3 -12 -2 -9 4 6 10 25 14 25 6z"/>
<path d="M2391 1767 c2 -2 11 -8 20 -15 12 -9 16 -9 16 1 0 7 -9 14 -20 14
-11 1 -18 1 -16 0z"/>
<path d="M692 1735 c4 -4 3 -14 -2 -21 -6 -6 -13 -21 -15 -32 -3 -15 0 -19 11
-15 9 3 13 12 9 21 -3 8 -1 20 5 27 8 10 7 15 -2 21 -7 4 -10 4 -6 -1z"/>
<path d="M790 1701 c0 -6 4 -12 8 -15 5 -3 9 1 9 9 0 8 -4 15 -9 15 -4 0 -8
-4 -8 -9z"/>
<path d="M2075 1690 c3 -5 8 -10 11 -10 2 0 4 5 4 10 0 6 -5 10 -11 10 -5 0
-7 -4 -4 -10z"/>
<path d="M180 1559 c0 -5 5 -7 10 -4 6 3 10 8 10 11 0 2 -4 4 -10 4 -5 0 -10
-5 -10 -11z"/>
<path d="M1619 1522 c8 -15 8 -22 -2 -25 -7 -3 -7 -6 -1 -6 6 -1 19 9 30 22
10 12 15 19 10 15 -5 -4 -17 -3 -28 3 -17 9 -18 8 -9 -9z"/>
<path d="M1599 1438 c-4 -10 -4 -77 0 -72 6 5 10 74 4 74 -2 0 -3 -1 -4 -2z"/>
<path d="M1674 932 c11 -12 21 -20 24 -17 3 3 12 -1 21 -8 14 -11 14 -10 2 6
-8 9 -16 15 -19 12 -3 -3 -15 3 -26 12 -21 18 -21 18 -2 -5z"/>
<path d="M1891 931 c-15 -26 7 -44 32 -27 22 17 22 23 -3 36 -15 8 -21 6 -29
-9z m26 -16 c-15 -16 -28 -10 -21 10 3 7 12 11 19 8 11 -4 12 -8 2 -18z"/>
<path d="M1583 924 c9 -11 15 -23 12 -26 -3 -2 2 -5 10 -5 10 0 12 4 5 12 -5
7 -6 16 -2 21 4 5 3 6 -2 2 -5 -4 -16 -2 -25 4 -12 10 -12 7 2 -8z"/>
<path d="M1630 915 c5 -7 7 -14 4 -18 -3 -3 1 -4 10 -3 8 1 19 6 23 10 4 4 1
6 -7 4 -8 -1 -14 2 -13 8 1 6 -5 11 -12 11 -10 0 -12 -4 -5 -12z"/>
<path d="M2110 836 c0 -2 8 -10 18 -17 15 -13 16 -12 3 4 -13 16 -21 21 -21
13z"/>
<path d="M2153 825 c0 -8 4 -12 9 -9 5 3 6 10 3 15 -9 13 -12 11 -12 -6z"/>
<path d="M2175 770 c-3 -6 -20 -8 -38 -5 -17 4 -29 3 -25 0 14 -14 56 -14 68
0 7 8 10 15 7 15 -3 0 -9 -5 -12 -10z"/>
<path d="M1890 760 c0 -5 5 -10 10 -10 6 0 10 5 10 10 0 6 -4 10 -10 10 -5 0
-10 -4 -10 -10z"/>
<path d="M2133 725 c0 -8 4 -12 9 -9 5 3 6 10 3 15 -9 13 -12 11 -12 -6z"/>
</g>
</svg>
